<svg xmlns="http://www.w3.org/2000/svg" viewBox="0 0 1024 1024" role="img">
<title>Quiz Studio</title>
<rect x="64" y="64" width="896" height="896" rx="204" fill="#fffdf7" stroke="#ddd7c9" stroke-width="10"/>
<path d="M150.3 844.0 L159.9 842.6 L169.5 841.3 L179.2 840.2 L188.9 839.1 L198.6 838.1 L208.3 837.2 L218.1 836.4 L227.9 835.7 L237.7 835.1 L247.6 834.5 L257.5 834.1 L267.4 833.6 L277.4 833.3 L287.3 833.0 L297.3 832.8 L307.3 832.6 L317.4 832.5 L327.4 832.4 L337.5 832.4 L347.6 832.4 L357.8 832.5 L367.9 832.6 L378.1 832.7 L388.3 832.9 L398.5 833.0 L408.7 833.2 L418.9 833.4 L429.2 833.7 L439.4 833.9 L449.7 834.1 L460.0 834.4 L470.3 834.6 L480.7 834.8 L491.0 835.1 L501.3 835.3 L511.7 835.5 L522.1 835.7 L532.4 835.8 L542.8 836.0 L553.2 836.1 L563.6 836.2 L574.0 836.2 L584.4 836.2 L594.8 836.2 L605.3 836.1 L615.7 835.9 L626.1 835.7 L636.6 835.5 L647.0 835.2 L657.4 834.8 L667.9 834.3 L678.3 833.8 L688.7 833.2 L699.2 832.5 L709.6 831.8 L720.0 830.9 L730.4 830.0 L740.8 829.0 L751.3 827.9 L761.7 826.6 L772.1 825.3 L782.5 823.9 L792.9 822.3 L803.2 820.7 L813.6 818.9 L824.0 817.0 L834.3 814.9 L844.7 812.8 L855.0 810.5 L865.3 808.0 L875.6 805.5 L885.8 802.8 L887.5 802.1 L889.0 800.9 L890.1 799.5 L890.8 797.8 L891.0 796.0 L890.8 794.2 L890.1 792.5 L888.9 791.0 L887.5 789.9 L885.8 789.2 L884.0 789.0 L882.2 789.2 L872.1 792.1 L862.0 794.7 L851.9 797.2 L841.7 799.6 L831.6 801.9 L821.4 804.0 L811.2 806.1 L801.0 808.0 L790.8 809.7 L780.6 811.4 L770.3 813.0 L760.1 814.4 L749.8 815.8 L739.5 817.0 L729.2 818.2 L718.9 819.2 L708.6 820.2 L698.3 821.1 L688.0 821.9 L677.6 822.6 L667.3 823.3 L656.9 823.9 L646.6 824.4 L636.2 824.8 L625.8 825.2 L615.5 825.5 L605.1 825.8 L594.7 826.1 L584.3 826.2 L574.0 826.4 L563.6 826.5 L553.2 826.5 L542.9 826.6 L532.5 826.6 L522.2 826.5 L511.8 826.5 L501.5 826.4 L491.1 826.4 L480.8 826.3 L470.5 826.2 L460.2 826.1 L449.9 826.0 L439.6 825.9 L429.3 825.8 L419.0 825.7 L408.8 825.6 L398.6 825.6 L388.3 825.5 L378.1 825.5 L367.9 825.5 L357.8 825.6 L347.6 825.7 L337.5 825.8 L327.4 825.9 L317.3 826.1 L307.2 826.4 L297.2 826.7 L287.1 827.1 L277.1 827.5 L267.2 828.0 L257.2 828.5 L247.3 829.2 L237.4 829.9 L227.5 830.6 L217.7 831.5 L207.9 832.4 L198.1 833.5 L188.3 834.6 L178.6 835.8 L169.0 837.1 L159.3 838.5 L149.7 840.0 L149.2 840.2 L148.8 840.4 L148.4 840.8 L148.1 841.3 L148.0 841.8 L148.0 842.3 L148.2 842.8 L148.4 843.2 L148.8 843.6 L149.3 843.9 L149.8 844.0 Z" fill="#315d8a" fill-opacity=".55"/>
<circle cx="476" cy="462" r="232" fill="none" stroke="#1f2933" stroke-width="80"/>
<path d="M613.5 650.4 L617.2 653.1 L620.6 655.9 L624.1 658.8 L627.4 661.7 L630.8 664.6 L634.2 667.5 L637.5 670.4 L640.9 673.3 L644.3 676.2 L647.6 679.2 L650.9 682.1 L654.3 685.0 L657.6 687.9 L661.0 690.8 L664.4 693.7 L667.7 696.6 L671.1 699.4 L674.5 702.3 L677.8 705.1 L681.2 708.0 L684.6 710.8 L688.0 713.6 L691.4 716.3 L694.9 719.1 L698.3 721.8 L701.7 724.5 L705.2 727.2 L708.7 729.9 L712.2 732.5 L715.7 735.1 L719.2 737.7 L722.7 740.2 L726.3 742.7 L729.8 745.2 L733.4 747.7 L737.0 750.1 L740.6 752.5 L744.3 754.8 L747.9 757.1 L751.6 759.4 L755.3 761.6 L759.0 763.8 L762.8 766.0 L766.5 768.1 L770.3 770.2 L774.1 772.2 L778.0 774.2 L781.8 776.1 L785.7 778.0 L789.6 779.8 L793.5 781.6 L797.5 783.3 L801.4 785.0 L805.5 786.6 L809.5 788.2 L813.5 789.7 L817.6 791.2 L821.7 792.6 L825.9 793.9 L830.0 795.2 L834.2 796.5 L838.4 797.6 L842.7 798.7 L847.0 799.8 L851.3 800.8 L855.6 801.7 L860.0 802.6 L864.4 803.3 L868.8 804.1 L873.3 804.7 L877.8 805.3 L882.2 805.8 L884.8 806.0 L887.4 805.4 L889.7 804.2 L891.6 802.5 L893.0 800.3 L893.8 797.8 L894.0 795.2 L893.4 792.6 L892.2 790.3 L890.5 788.4 L888.3 787.0 L885.8 786.2 L881.6 785.1 L877.6 784.0 L873.6 782.9 L869.6 781.6 L865.7 780.4 L861.8 779.0 L858.0 777.6 L854.3 776.2 L850.5 774.7 L846.8 773.2 L843.2 771.6 L839.6 769.9 L836.0 768.2 L832.5 766.5 L829.0 764.7 L825.6 762.8 L822.2 760.9 L818.8 759.0 L815.5 757.0 L812.1 755.0 L808.9 752.9 L805.6 750.8 L802.4 748.6 L799.2 746.4 L796.1 744.2 L792.9 741.9 L789.8 739.6 L786.8 737.2 L783.7 734.8 L780.7 732.3 L777.7 729.9 L774.7 727.3 L771.7 724.8 L768.8 722.2 L765.9 719.6 L763.0 716.9 L760.1 714.2 L757.2 711.5 L754.4 708.7 L751.6 705.9 L748.7 703.1 L745.9 700.2 L743.2 697.3 L740.4 694.4 L737.6 691.4 L734.9 688.5 L732.2 685.4 L729.4 682.4 L726.7 679.3 L724.0 676.2 L721.3 673.1 L718.6 670.0 L716.0 666.8 L713.3 663.6 L710.6 660.4 L708.0 657.1 L705.3 653.8 L702.7 650.5 L700.0 647.2 L697.4 643.9 L694.8 640.5 L692.2 637.1 L689.5 633.7 L686.9 630.2 L684.3 626.8 L681.7 623.3 L679.1 619.8 L676.5 616.2 L673.9 612.7 L671.3 609.1 L668.8 605.4 L666.5 601.6 L659.2 595.6 L650.7 591.6 L641.4 590.0 L632.1 590.9 L623.3 594.1 L615.6 599.5 L609.6 606.8 L605.6 615.3 L604.0 624.6 L604.9 633.9 L608.1 642.7 Z" fill="#1f2933"/>
</svg>
